<svg width="1950" height="500" viewBox="0 0 1950 500" fill="none" xmlns="http://www.w3.org/2000/svg">
<path d="M327.254 12.2359C377.465 28.5504 421.222 60.3418 452.254 103.054C483.286 145.766 500 197.205 500 250L250 250L327.254 12.2359Z" fill="#937DC2"/>
<path d="M327.254 487.764C277.043 504.079 222.957 504.079 172.746 487.764C122.535 471.45 78.7777 439.658 47.7457 396.946L250 250L327.254 487.764Z" fill="#A5A6F6"/>
<path d="M47.7457 396.946C16.7137 354.234 -4.61547e-06 302.795 0 250C4.61547e-06 197.205 16.7137 145.766 47.7458 103.054L250 250L47.7457 396.946Z" fill="#FFABE1"/>
<path d="M47.7458 103.054C78.7778 60.3418 122.535 28.5504 172.746 12.2359C222.957 -4.07863 277.043 -4.07862 327.254 12.2359L250 250L47.7458 103.054Z" fill="#C689C6"/>
<path d="M500 250C500 302.795 483.286 354.234 452.254 396.946C421.222 439.658 377.465 471.45 327.254 487.764L250 250H500Z" fill="#FFE6F7"/>
<path d="M358 250L196 343.531V156.469L358 250Z" fill="white"/>
<path d="M631.4 387V150.6C631.4 131.933 636.867 116.867 647.8 105.4C658.733 93.9333 674.467 88.2 695 88.2C703 88.2 710.733 89.2667 718.2 91.4C725.667 93.5333 731.933 96.8667 737 101.4L727.4 122.6C723.4 119.133 718.733 116.6 713.4 115C708.067 113.133 702.333 112.2 696.2 112.2C684.2 112.2 675 115.533 668.6 122.2C662.2 128.867 659 138.733 659 151.8V183.8L659.8 197V387H631.4ZM593.8 200.6V177H723.8V200.6H593.8ZM844.231 389C823.965 389 805.698 384.467 789.431 375.4C773.431 366.067 760.765 353.4 751.431 337.4C742.098 321.133 737.431 302.6 737.431 281.8C737.431 260.733 742.098 242.2 751.431 226.2C760.765 210.2 773.431 197.667 789.431 188.6C805.431 179.533 823.698 175 844.231 175C865.031 175 883.431 179.533 899.431 188.6C915.698 197.667 928.365 210.2 937.431 226.2C946.765 242.2 951.431 260.733 951.431 281.8C951.431 302.6 946.765 321.133 937.431 337.4C928.365 353.4 915.698 366.067 899.431 375.4C883.165 384.467 864.765 389 844.231 389ZM844.231 363.8C859.431 363.8 872.898 360.467 884.631 353.8C896.365 346.867 905.565 337.267 912.231 325C919.165 312.467 922.631 298.067 922.631 281.8C922.631 265.267 919.165 250.867 912.231 238.6C905.565 226.333 896.365 216.867 884.631 210.2C872.898 203.267 859.565 199.8 844.631 199.8C829.698 199.8 816.365 203.267 804.631 210.2C792.898 216.867 783.565 226.333 776.631 238.6C769.698 250.867 766.231 265.267 766.231 281.8C766.231 298.067 769.698 312.467 776.631 325C783.565 337.267 792.898 346.867 804.631 353.8C816.365 360.467 829.565 363.8 844.231 363.8ZM1075.81 389C1056.08 389 1040.88 383.667 1030.21 373C1019.55 362.333 1014.21 347.267 1014.21 327.8V130.6H1042.61V326.2C1042.61 338.467 1045.68 347.933 1051.81 354.6C1058.21 361.267 1067.28 364.6 1079.01 364.6C1091.55 364.6 1101.95 361 1110.21 353.8L1120.21 374.2C1114.61 379.267 1107.81 383 1099.81 385.4C1092.08 387.8 1084.08 389 1075.81 389ZM976.613 200.6V177H1106.61V200.6H976.613ZM1250.09 389C1229.82 389 1211.56 384.467 1195.29 375.4C1179.29 366.067 1166.62 353.4 1157.29 337.4C1147.96 321.133 1143.29 302.6 1143.29 281.8C1143.29 260.733 1147.96 242.2 1157.29 226.2C1166.62 210.2 1179.29 197.667 1195.29 188.6C1211.29 179.533 1229.56 175 1250.09 175C1270.89 175 1289.29 179.533 1305.29 188.6C1321.56 197.667 1334.22 210.2 1343.29 226.2C1352.62 242.2 1357.29 260.733 1357.29 281.8C1357.29 302.6 1352.62 321.133 1343.29 337.4C1334.22 353.4 1321.56 366.067 1305.29 375.4C1289.02 384.467 1270.62 389 1250.09 389ZM1250.09 363.8C1265.29 363.8 1278.76 360.467 1290.49 353.8C1302.22 346.867 1311.42 337.267 1318.09 325C1325.02 312.467 1328.49 298.067 1328.49 281.8C1328.49 265.267 1325.02 250.867 1318.09 238.6C1311.42 226.333 1302.22 216.867 1290.49 210.2C1278.76 203.267 1265.42 199.8 1250.49 199.8C1235.56 199.8 1222.22 203.267 1210.49 210.2C1198.76 216.867 1189.42 226.333 1182.49 238.6C1175.56 250.867 1172.09 265.267 1172.09 281.8C1172.09 298.067 1175.56 312.467 1182.49 325C1189.42 337.267 1198.76 346.867 1210.49 353.8C1222.22 360.467 1235.42 363.8 1250.09 363.8ZM1399.27 387L1446.47 150.2C1450.47 130.467 1458.47 115.267 1470.47 104.6C1482.74 93.6667 1498.74 88.2 1518.47 88.2C1527.01 88.2 1535.01 89.4 1542.47 91.8C1549.94 94.2 1556.07 97.5333 1560.87 101.8L1548.07 122.6C1540.61 115.667 1530.74 112.2 1518.47 112.2C1506.21 112.2 1496.34 115.533 1488.87 122.2C1481.67 128.6 1476.61 139 1473.67 153.4L1467.27 184.2L1465.67 196.6L1427.67 387H1399.27ZM1398.87 200.6L1403.27 177H1533.27L1528.47 200.6H1398.87ZM1530.07 387L1589.27 90.2H1617.67L1558.47 387H1530.07ZM1638.22 387L1679.82 177H1708.22L1666.62 387H1638.22ZM1706.22 130.6C1700.62 130.6 1695.96 128.733 1692.22 125C1688.76 121.267 1687.02 116.867 1687.02 111.8C1687.02 105.933 1689.02 100.867 1693.02 96.6C1697.29 92.3333 1702.62 90.2 1709.02 90.2C1714.62 90.2 1719.29 91.9333 1723.02 95.4C1726.76 98.8667 1728.62 103.267 1728.62 108.6C1728.62 115 1726.49 120.333 1722.22 124.6C1717.96 128.6 1712.62 130.6 1706.22 130.6ZM1712.84 387L1826.04 271L1822.84 285L1760.44 177H1790.44L1842.44 267.8L1829.64 267.4L1916.84 177H1949.64L1842.04 287.8L1844.44 271.8L1911.24 387H1880.84L1826.04 291H1838.84L1746.44 387H1712.84Z" fill="#937DC2"/>
</svg>
