<svg width="500" height="500" viewBox="0 0 500 500" fill="none" xmlns="http://www.w3.org/2000/svg">
<path d="M327.254 12.2359C377.465 28.5504 421.222 60.3418 452.254 103.054C483.286 145.766 500 197.205 500 250L250 250L327.254 12.2359Z" fill="#937DC2"/>
<path d="M327.254 487.764C277.043 504.079 222.957 504.079 172.746 487.764C122.535 471.45 78.7777 439.658 47.7457 396.946L250 250L327.254 487.764Z" fill="#A5A6F6"/>
<path d="M47.7457 396.946C16.7137 354.234 -4.61547e-06 302.795 0 250C4.61547e-06 197.205 16.7137 145.766 47.7458 103.054L250 250L47.7457 396.946Z" fill="#FFABE1"/>
<path d="M47.7458 103.054C78.7778 60.3418 122.535 28.5504 172.746 12.2359C222.957 -4.07863 277.043 -4.07862 327.254 12.2359L250 250L47.7458 103.054Z" fill="#C689C6"/>
<path d="M500 250C500 302.795 483.286 354.234 452.254 396.946C421.222 439.658 377.465 471.45 327.254 487.764L250 250H500Z" fill="#FFE6F7"/>
<path d="M358 250L196 343.531V156.469L358 250Z" fill="white"/>
</svg>
